{"images":[{"name":"","uri":"1686239375582.png"}],"accessors":[{"componentType":5126,"min":[-251.642578125,65.2807846069336,-73.05147552490234],"bufferView":0,"max":[241.6848602294922,612.8555297851562,219.20680236816406],"count":170856,"type":"VEC3"},{"componentType":5126,"bufferView":1,"count":170856,"type":"VEC3"},{"componentType":5126,"bufferView":2,"count":170856,"type":"VEC2"},{"componentType":5125,"bufferView":3,"count":170856,"type":"SCALAR"}],"extensionsUsed":["MTL","avatar_shape_names","avatar_arcdata","avatar_glass_keypoints","Arc3DTech"],"textures":[{"name":"","source":0,"sampler":0}],"buffers":[{"byteLength":6150816,"name":"ArcsoftBuffer","uri":"1686239375582.bin"}],"bufferViews":[{"byteOffset":0,"byteLength":2050272,"buffer":0},{"byteOffset":2050272,"byteLength":2050272,"buffer":0},{"byteOffset":4100544,"byteLength":1366848,"buffer":0},{"byteOffset":5467392,"byteLength":683424,"buffer":0}],"samplers":[{"minFilter":9987,"name":"","wrapT":10497,"wrapS":10497,"magFilter":9729}],"scene":0,"nodes":[{"rotation":[0.0,0.0,0.0,1.0],"name":"","translation":[0.0,0.0,0.0],"scale":[1.0,1.0,1.0],"mesh":0}],"materials":[{"extensions":{"MTL":{"d":1.0,"Ns":5.0,"Ka":[0.429,0.535,0.382],"map_Kd":"1686239375582.png","Ks":[0.0,0.0,0.0],"Kd":[0.429,0.535,0.382],"illum":2.0}},"name":"","doubleSided":true,"pbrMetallicRoughness":{"baseColorTexture":{"index":0,"texCoord":0},"metallicFactor":1.0,"roughnessFactor":1.0},"alphaMode":"OPAQUE"}],"scenes":[{"nodes":[0]}],"asset":{"generator":"Arcsoftgltf v1.0","version":"2.0"},"meshes":[{"extensions":{"Arc3DTech":{"Model":"Human","ScanAngle":"-180.0;0.0;0.0;180.0","Date":"6 8,2023 17:48:50"}},"primitives":[{"indices":3,"material":0,"attributes":{"POSITION":0,"TEXCOORD_0":2,"NORMAL":1}}],"name":"ArcsoftMeshes0"}]}